<mxfile host="Electron" modified="2023-07-22T08:45:08.786Z" agent="Mozilla/5.0 (Windows NT 10.0; Win64; x64) AppleWebKit/537.36 (KHTML, like Gecko) draw.io/21.6.1 Chrome/112.0.5615.204 Electron/24.6.1 Safari/537.36" etag="zKxZ2iB4M6KjBhliubHt" version="21.6.1" type="device" pages="2">
  <diagram name="Page-1" id="b5b7bab2-c9e2-2cf4-8b2a-24fd1a2a6d21">
    <mxGraphModel dx="2074" dy="1197" grid="1" gridSize="10" guides="1" tooltips="1" connect="1" arrows="1" fold="1" page="1" pageScale="1" pageWidth="827" pageHeight="1169" background="none" math="0" shadow="0">
      <root>
        <mxCell id="0" />
        <mxCell id="1" parent="0" />
        <mxCell id="W0LOnqKOgB336WQRappB-2" value="CL Adder&lt;br&gt;8-bit iin/out" style="rounded=0;whiteSpace=wrap;html=1;" vertex="1" parent="1">
          <mxGeometry x="120" y="240" width="350" height="60" as="geometry" />
        </mxCell>
        <mxCell id="W0LOnqKOgB336WQRappB-3" value="CL Subtractor&lt;br&gt;&amp;nbsp;8-bit iin/out" style="rounded=0;whiteSpace=wrap;html=1;" vertex="1" parent="1">
          <mxGeometry x="120" y="300" width="350" height="60" as="geometry" />
        </mxCell>
        <mxCell id="W0LOnqKOgB336WQRappB-4" value="Booth Multiplier&lt;br&gt;&amp;nbsp;8-bit iin/ 16-bit out" style="rounded=0;whiteSpace=wrap;html=1;" vertex="1" parent="1">
          <mxGeometry x="120" y="360" width="350" height="60" as="geometry" />
        </mxCell>
        <mxCell id="W0LOnqKOgB336WQRappB-5" value="Riipple Adder&lt;br&gt;8-bit iin/out" style="rounded=0;whiteSpace=wrap;html=1;" vertex="1" parent="1">
          <mxGeometry x="120" y="120" width="350" height="60" as="geometry" />
        </mxCell>
        <mxCell id="W0LOnqKOgB336WQRappB-6" value="Ripple Subtractor&lt;br&gt;&amp;nbsp;8-bit iin/out" style="rounded=0;whiteSpace=wrap;html=1;" vertex="1" parent="1">
          <mxGeometry x="120" y="180" width="350" height="60" as="geometry" />
        </mxCell>
        <mxCell id="W0LOnqKOgB336WQRappB-7" value="Array&amp;nbsp;Multiplier&lt;br&gt;&amp;nbsp;8-bit iin// 16-bit&amp;nbsp; out" style="rounded=0;whiteSpace=wrap;html=1;" vertex="1" parent="1">
          <mxGeometry x="120" y="420" width="350" height="60" as="geometry" />
        </mxCell>
        <mxCell id="W0LOnqKOgB336WQRappB-8" value="Booth Multiplier&lt;br&gt;&amp;nbsp;8-bit iin// 16-bit&amp;nbsp;out" style="rounded=0;whiteSpace=wrap;html=1;" vertex="1" parent="1">
          <mxGeometry x="120" y="480" width="350" height="60" as="geometry" />
        </mxCell>
        <mxCell id="W0LOnqKOgB336WQRappB-9" value="LFSR&lt;br&gt;8-bit iin/out 8 bit Quotient out" style="rounded=0;whiteSpace=wrap;html=1;" vertex="1" parent="1">
          <mxGeometry x="120" y="900" width="350" height="60" as="geometry" />
        </mxCell>
        <mxCell id="W0LOnqKOgB336WQRappB-10" value="Wallis&amp;nbsp;Multiplier&lt;br&gt;&amp;nbsp;8-bit iin/ 16-bit&amp;nbsp;/out" style="rounded=0;whiteSpace=wrap;html=1;" vertex="1" parent="1">
          <mxGeometry x="120" y="540" width="350" height="60" as="geometry" />
        </mxCell>
        <mxCell id="W0LOnqKOgB336WQRappB-11" value="Reciprocoal Fivision&lt;br&gt;8-bit iin// 16-bit&amp;nbsp;out &lt;br&gt;8-bit Quotient" style="rounded=0;whiteSpace=wrap;html=1;" vertex="1" parent="1">
          <mxGeometry x="120" y="720" width="350" height="60" as="geometry" />
        </mxCell>
        <mxCell id="W0LOnqKOgB336WQRappB-12" value="SRT Divider&lt;br&gt;8-bit iin// 16-bit&amp;nbsp;out &lt;br&gt;8-bit Quotient" style="rounded=0;whiteSpace=wrap;html=1;" vertex="1" parent="1">
          <mxGeometry x="120" y="780" width="350" height="60" as="geometry" />
        </mxCell>
        <mxCell id="W0LOnqKOgB336WQRappB-13" value="Non-Restoring Division&lt;br&gt;8-bit iin// 16-bit&amp;nbsp;out &lt;br&gt;8-bit Quotient" style="rounded=0;whiteSpace=wrap;html=1;" vertex="1" parent="1">
          <mxGeometry x="120" y="600" width="350" height="60" as="geometry" />
        </mxCell>
        <mxCell id="W0LOnqKOgB336WQRappB-14" value="Pipeline Division&lt;br&gt;8-bit iin// 16-bit&amp;nbsp;out &lt;br&gt;8-bit Quotient" style="rounded=0;whiteSpace=wrap;html=1;" vertex="1" parent="1">
          <mxGeometry x="120" y="660" width="350" height="60" as="geometry" />
        </mxCell>
        <mxCell id="W0LOnqKOgB336WQRappB-15" value="Leading 1 Trailing 1&lt;br&gt;8-bit iin/out 8 bit Quotiednt out (for trailing)" style="rounded=0;whiteSpace=wrap;html=1;" vertex="1" parent="1">
          <mxGeometry x="120" y="840" width="350" height="60" as="geometry" />
        </mxCell>
        <mxCell id="W0LOnqKOgB336WQRappB-17" value="A, B, addends&lt;br&gt;C Result" style="shape=process;whiteSpace=wrap;html=1;backgroundOutline=1;" vertex="1" parent="1">
          <mxGeometry x="480" y="120" width="190" height="60" as="geometry" />
        </mxCell>
        <mxCell id="W0LOnqKOgB336WQRappB-18" value="A, B, addends&lt;br&gt;C Result" style="shape=process;whiteSpace=wrap;html=1;backgroundOutline=1;" vertex="1" parent="1">
          <mxGeometry x="480" y="180" width="190" height="60" as="geometry" />
        </mxCell>
        <mxCell id="W0LOnqKOgB336WQRappB-19" value="A, B, addends&lt;br&gt;C Result" style="shape=process;whiteSpace=wrap;html=1;backgroundOutline=1;" vertex="1" parent="1">
          <mxGeometry x="480" y="240" width="190" height="60" as="geometry" />
        </mxCell>
        <mxCell id="W0LOnqKOgB336WQRappB-20" value="A, B, subtractends&lt;br&gt;C Result" style="shape=process;whiteSpace=wrap;html=1;backgroundOutline=1;" vertex="1" parent="1">
          <mxGeometry x="480" y="300" width="190" height="60" as="geometry" />
        </mxCell>
        <mxCell id="W0LOnqKOgB336WQRappB-21" value="A, B, jutiplicands&lt;br&gt;C Result" style="shape=process;whiteSpace=wrap;html=1;backgroundOutline=1;" vertex="1" parent="1">
          <mxGeometry x="480" y="360" width="190" height="60" as="geometry" />
        </mxCell>
        <mxCell id="W0LOnqKOgB336WQRappB-22" value="A, B, jutiplicands&lt;br&gt;C Result" style="shape=process;whiteSpace=wrap;html=1;backgroundOutline=1;" vertex="1" parent="1">
          <mxGeometry x="480" y="420" width="190" height="60" as="geometry" />
        </mxCell>
        <mxCell id="W0LOnqKOgB336WQRappB-23" value="A, B, jutiplicands&lt;br&gt;C Result" style="shape=process;whiteSpace=wrap;html=1;backgroundOutline=1;" vertex="1" parent="1">
          <mxGeometry x="480" y="480" width="190" height="60" as="geometry" />
        </mxCell>
        <mxCell id="W0LOnqKOgB336WQRappB-24" value="A, B, jutiplicands&lt;br&gt;C Result" style="shape=process;whiteSpace=wrap;html=1;backgroundOutline=1;" vertex="1" parent="1">
          <mxGeometry x="480" y="540" width="190" height="60" as="geometry" />
        </mxCell>
        <mxCell id="W0LOnqKOgB336WQRappB-25" value="A, B, Divisor Dividend&lt;br&gt;C Result" style="shape=process;whiteSpace=wrap;html=1;backgroundOutline=1;" vertex="1" parent="1">
          <mxGeometry x="480" y="600" width="190" height="60" as="geometry" />
        </mxCell>
        <mxCell id="W0LOnqKOgB336WQRappB-26" value="A, B, Divisor Dividend&lt;br&gt;C Result" style="shape=process;whiteSpace=wrap;html=1;backgroundOutline=1;" vertex="1" parent="1">
          <mxGeometry x="480" y="660" width="190" height="60" as="geometry" />
        </mxCell>
        <mxCell id="W0LOnqKOgB336WQRappB-27" value="A, B, Divisor Dividend&lt;br&gt;C Result" style="shape=process;whiteSpace=wrap;html=1;backgroundOutline=1;" vertex="1" parent="1">
          <mxGeometry x="480" y="720" width="190" height="60" as="geometry" />
        </mxCell>
        <mxCell id="W0LOnqKOgB336WQRappB-28" value="A, B, Divisor Dividend&lt;br&gt;C Result" style="shape=process;whiteSpace=wrap;html=1;backgroundOutline=1;" vertex="1" parent="1">
          <mxGeometry x="480" y="780" width="190" height="60" as="geometry" />
        </mxCell>
        <mxCell id="W0LOnqKOgB336WQRappB-29" value="AValue, B Le&lt;br&gt;ading Result,&lt;br&gt;C Trailing Result" style="shape=process;whiteSpace=wrap;html=1;backgroundOutline=1;" vertex="1" parent="1">
          <mxGeometry x="480" y="840" width="190" height="60" as="geometry" />
        </mxCell>
        <mxCell id="W0LOnqKOgB336WQRappB-30" value="A[0] enable, a[1] load&lt;br&gt;B load data&amp;nbsp;&lt;br&gt;QResult = lfsr_data" style="shape=process;whiteSpace=wrap;html=1;backgroundOutline=1;" vertex="1" parent="1">
          <mxGeometry x="480" y="900" width="190" height="60" as="geometry" />
        </mxCell>
        <mxCell id="W0LOnqKOgB336WQRappB-33" value="0000" style="ellipse;whiteSpace=wrap;html=1;aspect=fixed;" vertex="1" parent="1">
          <mxGeometry x="670" y="120" width="60" height="60" as="geometry" />
        </mxCell>
        <mxCell id="W0LOnqKOgB336WQRappB-34" value="0001" style="ellipse;whiteSpace=wrap;html=1;aspect=fixed;" vertex="1" parent="1">
          <mxGeometry x="670" y="180" width="60" height="60" as="geometry" />
        </mxCell>
        <mxCell id="W0LOnqKOgB336WQRappB-35" value="0010" style="ellipse;whiteSpace=wrap;html=1;aspect=fixed;" vertex="1" parent="1">
          <mxGeometry x="670" y="240" width="60" height="60" as="geometry" />
        </mxCell>
        <mxCell id="W0LOnqKOgB336WQRappB-36" value="0011" style="ellipse;whiteSpace=wrap;html=1;aspect=fixed;" vertex="1" parent="1">
          <mxGeometry x="670" y="300" width="60" height="60" as="geometry" />
        </mxCell>
        <mxCell id="W0LOnqKOgB336WQRappB-37" value="0100" style="ellipse;whiteSpace=wrap;html=1;aspect=fixed;" vertex="1" parent="1">
          <mxGeometry x="670" y="360" width="60" height="60" as="geometry" />
        </mxCell>
        <mxCell id="W0LOnqKOgB336WQRappB-38" value="0101" style="ellipse;whiteSpace=wrap;html=1;aspect=fixed;" vertex="1" parent="1">
          <mxGeometry x="670" y="420" width="60" height="60" as="geometry" />
        </mxCell>
        <mxCell id="W0LOnqKOgB336WQRappB-39" value="0110" style="ellipse;whiteSpace=wrap;html=1;aspect=fixed;" vertex="1" parent="1">
          <mxGeometry x="670" y="480" width="60" height="60" as="geometry" />
        </mxCell>
        <mxCell id="W0LOnqKOgB336WQRappB-40" value="0111" style="ellipse;whiteSpace=wrap;html=1;aspect=fixed;" vertex="1" parent="1">
          <mxGeometry x="670" y="540" width="60" height="60" as="geometry" />
        </mxCell>
        <mxCell id="W0LOnqKOgB336WQRappB-46" value="1000" style="ellipse;whiteSpace=wrap;html=1;aspect=fixed;" vertex="1" parent="1">
          <mxGeometry x="670" y="600" width="60" height="60" as="geometry" />
        </mxCell>
        <mxCell id="W0LOnqKOgB336WQRappB-47" value="1001" style="ellipse;whiteSpace=wrap;html=1;aspect=fixed;" vertex="1" parent="1">
          <mxGeometry x="670" y="660" width="60" height="60" as="geometry" />
        </mxCell>
        <mxCell id="W0LOnqKOgB336WQRappB-48" value="1010" style="ellipse;whiteSpace=wrap;html=1;aspect=fixed;" vertex="1" parent="1">
          <mxGeometry x="670" y="720" width="60" height="60" as="geometry" />
        </mxCell>
        <mxCell id="W0LOnqKOgB336WQRappB-49" value="1011" style="ellipse;whiteSpace=wrap;html=1;aspect=fixed;" vertex="1" parent="1">
          <mxGeometry x="670" y="780" width="60" height="60" as="geometry" />
        </mxCell>
        <mxCell id="W0LOnqKOgB336WQRappB-50" value="1100" style="ellipse;whiteSpace=wrap;html=1;aspect=fixed;" vertex="1" parent="1">
          <mxGeometry x="670" y="840" width="60" height="60" as="geometry" />
        </mxCell>
        <mxCell id="W0LOnqKOgB336WQRappB-51" value="1101" style="ellipse;whiteSpace=wrap;html=1;aspect=fixed;" vertex="1" parent="1">
          <mxGeometry x="670" y="900" width="60" height="60" as="geometry" />
        </mxCell>
      </root>
    </mxGraphModel>
  </diagram>
  <diagram id="CDE1ZuvUUULAe-xZ_1jG" name="Page-2">
    <mxGraphModel dx="2074" dy="1197" grid="1" gridSize="10" guides="1" tooltips="1" connect="1" arrows="1" fold="1" page="1" pageScale="1" pageWidth="850" pageHeight="1100" math="0" shadow="0">
      <root>
        <mxCell id="0" />
        <mxCell id="1" parent="0" />
      </root>
    </mxGraphModel>
  </diagram>
</mxfile>
